<?xml version="1.0" encoding="UTF-8"?>
<svg xmlns="http://www.w3.org/2000/svg" xmlns:xlink="http://www.w3.org/1999/xlink" width="192pt" height="119.999999pt" viewBox="0 0 192 119.999999" version="1.2">
<g id="surface1">
<path style=" stroke:none;fill-rule:nonzero;fill:rgb(90.979004%,91.369629%,92.158508%);fill-opacity:1;" d="M 185.5 120 L 6.5 120 C 2.917969 120 0 117.082031 0 113.5 L 0 6.5 C 0 2.917969 2.917969 0 6.5 0 L 185.5 0 C 189.082031 0 192 2.917969 192 6.5 L 192 113.5 C 192 117.082031 189.082031 120 185.5 120 Z M 185.5 120 "/>
<path style=" stroke:none;fill-rule:nonzero;fill:rgb(0%,0%,0%);fill-opacity:1;" d="M 53.859375 41.957031 L 47.714844 45.09375 L 18.054688 60.234375 C 17.953125 59.46875 17.90625 58.695312 17.90625 57.921875 C 17.917969 48.214844 25.890625 40.234375 35.574219 40.234375 C 38.589844 40.234375 41.558594 41.007812 44.191406 42.484375 L 47.703125 40.6875 L 48.230469 40.421875 C 44.542969 37.738281 40.105469 36.296875 35.550781 36.296875 C 23.710938 36.296875 13.96875 46.058594 13.96875 57.925781 L 13.96875 57.929688 C 13.96875 58.480469 13.992188 59.027344 14.03125 59.574219 C 14.152344 61.152344 13.308594 62.65625 11.898438 63.378906 L 10.046875 64.324219 L 10.046875 68.746094 L 15.503906 65.957031 L 17.269531 65.050781 L 19.011719 64.164062 L 50.28125 48.195312 L 53.796875 46.402344 L 61.058594 42.691406 L 61.058594 38.277344 Z M 61.058594 47.113281 L 20.789062 67.660156 L 17.277344 69.460938 L 10.046875 73.152344 L 10.046875 77.566406 L 17.226562 73.902344 L 23.367188 70.765625 L 53.058594 55.601562 C 53.160156 56.371094 53.210938 57.148438 53.210938 57.929688 C 53.207031 67.640625 45.230469 75.625 35.542969 75.625 C 32.515625 75.625 29.539062 74.847656 26.898438 73.363281 L 26.683594 73.480469 L 22.871094 75.425781 C 26.558594 78.109375 31 79.550781 35.550781 79.550781 C 47.390625 79.550781 57.132812 69.792969 57.132812 57.929688 C 57.132812 57.375 57.113281 56.816406 57.074219 56.265625 C 56.953125 54.6875 57.796875 53.183594 59.199219 52.464844 L 61.058594 51.519531 Z M 121.710938 50.179688 C 115.550781 50.179688 110.773438 54.722656 110.773438 61.898438 C 110.773438 68.574219 114.710938 73.699219 121.835938 73.699219 C 127.328125 73.699219 130.929688 70.464844 131.933594 66.601562 L 127.996094 66.601562 C 127.03125 68.824219 125.191406 70.339844 121.835938 70.339844 C 118.523438 70.339844 115.003906 67.988281 114.878906 63.117188 L 132.226562 63.117188 C 132.691406 55.933594 128.625 50.179688 121.710938 50.179688 Z M 114.921875 59.839844 C 115.257812 55.296875 118.355469 53.457031 121.710938 53.457031 C 125.773438 53.457031 128.078125 56.648438 128.203125 59.839844 Z M 87.582031 55.679688 L 84.074219 54.882812 C 81.214844 54.25 79.109375 52.910156 79.109375 50.222656 C 79.109375 46.816406 83.210938 45.769531 85.5625 45.769531 C 88.582031 45.769531 92.101562 46.988281 93.105469 50.472656 L 97.253906 50.472656 C 96.039062 44.632812 91.210938 42.15625 85.730469 42.15625 C 80.828125 42.15625 74.753906 44.636719 74.753906 50.472656 C 74.753906 55.511719 78.898438 57.867188 83.089844 58.789062 L 86.878906 59.589844 C 90.691406 60.46875 93.414062 61.726562 93.414062 64.960938 C 93.414062 67.992188 90.859375 70.085938 86.335938 70.085938 C 81.601562 70.085938 78.75 67.902344 77.957031 63.703125 L 73.753906 63.703125 C 74.550781 69.761719 79.078125 73.699219 86.242188 73.699219 C 92.285156 73.699219 97.808594 70.507812 97.808594 64.585938 C 97.808594 58.453125 92.238281 56.691406 87.582031 55.679688 Z M 105.996094 44.886719 L 102.183594 44.886719 L 102.183594 50.558594 L 98.617188 50.558594 L 98.617188 53.625 L 102.183594 53.625 L 102.183594 67.484375 C 102.183594 72.1875 103.1875 73.152344 107.503906 73.152344 L 110.269531 73.152344 L 110.269531 69.960938 L 108.34375 69.960938 C 106.164062 69.960938 105.996094 69.371094 105.996094 67.019531 L 105.996094 53.625 L 110.269531 53.625 L 110.269531 50.558594 L 105.996094 50.558594 Z M 181.558594 50.429688 C 178.582031 50.558594 176.320312 51.945312 175.191406 54.503906 L 175.191406 50.558594 L 171.457031 50.558594 L 171.457031 73.152344 L 175.269531 73.152344 L 175.269531 61.308594 C 175.269531 56.269531 177.03125 54.386719 180.550781 54.386719 C 181.269531 54.386719 181.984375 54.445312 182.691406 54.554688 L 182.691406 50.472656 C 182.3125 50.441406 181.9375 50.425781 181.558594 50.429688 Z M 167.789062 64.632812 L 167.828125 59.425781 C 167.875 53 165.191406 50.101562 158.863281 50.101562 C 154.503906 50.101562 150.144531 52.832031 149.8125 57.703125 L 153.75 57.703125 C 153.917969 54.890625 155.722656 53.210938 158.90625 53.210938 C 161.753906 53.210938 164.015625 54.554688 164.015625 58.710938 L 164.015625 59.257812 C 154.800781 60.265625 148.765625 61.851562 148.765625 67.195312 C 148.765625 71.351562 152.285156 73.707031 156.515625 73.707031 C 160.539062 73.707031 162.84375 72.40625 164.226562 70.054688 C 164.257812 71.09375 164.355469 72.132812 164.519531 73.160156 L 168.375 73.160156 C 167.914062 71.011719 167.746094 68.449219 167.789062 64.632812 Z M 164.308594 63.710938 C 164.308594 69.042969 160.917969 70.683594 157.355469 70.683594 C 154.628906 70.683594 152.996094 69.253906 152.996094 67.113281 C 152.996094 64.003906 157.394531 62.953125 164.308594 62.28125 Z M 134.792969 42.6875 L 138.609375 42.6875 L 138.609375 73.152344 L 134.792969 73.152344 Z M 142.417969 42.6875 L 146.230469 42.6875 L 146.230469 73.152344 L 142.417969 73.152344 Z M 142.417969 42.6875 "/>
</g>
</svg>
